<mxfile host="app.diagrams.net" modified="2021-04-20T14:40:39.273Z" agent="5.0 (Windows NT 10.0; Win64; x64) AppleWebKit/537.36 (KHTML, like Gecko) Chrome/89.0.4389.128 Safari/537.36" etag="7ZggcU-YsvielP9HFZ4l" version="14.6.3" type="github">
  <diagram id="_MlIaTFmYdxoSdyCVWUp" name="Page-1">
    <mxGraphModel dx="782" dy="469" grid="1" gridSize="10" guides="1" tooltips="1" connect="1" arrows="1" fold="1" page="1" pageScale="1" pageWidth="850" pageHeight="1100" math="0" shadow="1">
      <root>
        <mxCell id="0" />
        <mxCell id="1" parent="0" />
        <mxCell id="K35LnR0Q5-yhbviIUeu--1" value="Users" style="rounded=1;whiteSpace=wrap;html=1;shadow=1;" parent="1" vertex="1">
          <mxGeometry x="20" y="310" width="80" height="50" as="geometry" />
        </mxCell>
        <mxCell id="K35LnR0Q5-yhbviIUeu--2" value="Site Layout" style="rounded=1;whiteSpace=wrap;html=1;glass=0;shadow=1;sketch=0;" parent="1" vertex="1">
          <mxGeometry x="170" y="260" width="240" height="200" as="geometry" />
        </mxCell>
        <mxCell id="K35LnR0Q5-yhbviIUeu--3" value="Meeting Rooms&amp;nbsp;" style="rounded=1;whiteSpace=wrap;html=1;glass=0;sketch=0;shadow=0;" parent="1" vertex="1">
          <mxGeometry x="190" y="270" width="120" height="60" as="geometry" />
        </mxCell>
        <mxCell id="K35LnR0Q5-yhbviIUeu--4" value="pods" style="rounded=1;whiteSpace=wrap;html=1;" parent="1" vertex="1">
          <mxGeometry x="180" y="390" width="120" height="60" as="geometry" />
        </mxCell>
        <mxCell id="K35LnR0Q5-yhbviIUeu--5" value="Hot Seats" style="rounded=1;whiteSpace=wrap;html=1;rotation=90;" parent="1" vertex="1">
          <mxGeometry x="310" y="330" width="120" height="60" as="geometry" />
        </mxCell>
        <mxCell id="K35LnR0Q5-yhbviIUeu--6" value="Reservation Management Service&amp;nbsp;" style="rounded=1;whiteSpace=wrap;html=1;shadow=1;" parent="1" vertex="1">
          <mxGeometry x="480" y="290" width="90" height="60" as="geometry" />
        </mxCell>
        <mxCell id="K35LnR0Q5-yhbviIUeu--7" value="User Management Service&amp;nbsp;" style="rounded=1;whiteSpace=wrap;html=1;shadow=1;" parent="1" vertex="1">
          <mxGeometry x="20" y="470" width="80" height="50" as="geometry" />
        </mxCell>
        <mxCell id="K35LnR0Q5-yhbviIUeu--8" value="DB" style="shape=cylinder3;whiteSpace=wrap;html=1;boundedLbl=1;backgroundOutline=1;size=15;" parent="1" vertex="1">
          <mxGeometry x="540" y="450" width="60" height="80" as="geometry" />
        </mxCell>
        <mxCell id="K35LnR0Q5-yhbviIUeu--12" value="" style="endArrow=classic;startArrow=classic;html=1;exitX=1;exitY=0.75;exitDx=0;exitDy=0;" parent="1" source="K35LnR0Q5-yhbviIUeu--1" edge="1">
          <mxGeometry width="50" height="50" relative="1" as="geometry">
            <mxPoint x="190" y="330" as="sourcePoint" />
            <mxPoint x="170" y="348" as="targetPoint" />
            <Array as="points" />
          </mxGeometry>
        </mxCell>
        <mxCell id="K35LnR0Q5-yhbviIUeu--15" value="" style="endArrow=classic;startArrow=classic;html=1;entryX=0.356;entryY=0;entryDx=0;entryDy=0;entryPerimeter=0;exitX=0.904;exitY=1.056;exitDx=0;exitDy=0;exitPerimeter=0;" parent="1" source="K35LnR0Q5-yhbviIUeu--6" target="K35LnR0Q5-yhbviIUeu--8" edge="1">
          <mxGeometry width="50" height="50" relative="1" as="geometry">
            <mxPoint x="560" y="360" as="sourcePoint" />
            <mxPoint x="640" y="450" as="targetPoint" />
            <Array as="points" />
          </mxGeometry>
        </mxCell>
        <mxCell id="K35LnR0Q5-yhbviIUeu--16" value="" style="endArrow=classic;startArrow=classic;html=1;entryX=0;entryY=0;entryDx=0;entryDy=52.5;entryPerimeter=0;" parent="1" target="K35LnR0Q5-yhbviIUeu--8" edge="1">
          <mxGeometry width="50" height="50" relative="1" as="geometry">
            <mxPoint x="100" y="503" as="sourcePoint" />
            <mxPoint x="440" y="529.5" as="targetPoint" />
            <Array as="points" />
          </mxGeometry>
        </mxCell>
        <mxCell id="K35LnR0Q5-yhbviIUeu--17" value="" style="endArrow=classic;startArrow=classic;html=1;exitX=0.496;exitY=1;exitDx=0;exitDy=0;exitPerimeter=0;entryX=0.5;entryY=0;entryDx=0;entryDy=0;" parent="1" source="K35LnR0Q5-yhbviIUeu--1" target="K35LnR0Q5-yhbviIUeu--7" edge="1">
          <mxGeometry width="50" height="50" relative="1" as="geometry">
            <mxPoint x="80.1400000000001" y="383.36" as="sourcePoint" />
            <mxPoint x="79.5" y="470" as="targetPoint" />
            <Array as="points" />
          </mxGeometry>
        </mxCell>
        <mxCell id="K35LnR0Q5-yhbviIUeu--18" value="Workflow Engine" style="rounded=1;whiteSpace=wrap;html=1;glass=0;sketch=0;shadow=1;" parent="1" vertex="1">
          <mxGeometry x="480" y="180" width="90" height="60" as="geometry" />
        </mxCell>
        <mxCell id="K35LnR0Q5-yhbviIUeu--19" value="" style="endArrow=classic;startArrow=classic;html=1;" parent="1" edge="1">
          <mxGeometry width="50" height="50" relative="1" as="geometry">
            <mxPoint x="520" y="240" as="sourcePoint" />
            <mxPoint x="520" y="290" as="targetPoint" />
            <Array as="points" />
          </mxGeometry>
        </mxCell>
        <mxCell id="K35LnR0Q5-yhbviIUeu--20" value="Notification Service" style="rounded=1;whiteSpace=wrap;html=1;shadow=1;" parent="1" vertex="1">
          <mxGeometry x="610" y="280" width="70" height="60" as="geometry" />
        </mxCell>
        <mxCell id="K35LnR0Q5-yhbviIUeu--23" value="" style="endArrow=classic;startArrow=classic;html=1;exitX=1;exitY=0.5;exitDx=0;exitDy=0;entryX=0;entryY=0.5;entryDx=0;entryDy=0;" parent="1" target="K35LnR0Q5-yhbviIUeu--6" edge="1">
          <mxGeometry width="50" height="50" relative="1" as="geometry">
            <mxPoint x="410" y="319.5" as="sourcePoint" />
            <mxPoint x="450" y="320" as="targetPoint" />
            <Array as="points" />
          </mxGeometry>
        </mxCell>
        <mxCell id="K35LnR0Q5-yhbviIUeu--24" value="Real time update service" style="rounded=1;whiteSpace=wrap;html=1;shadow=1;" parent="1" vertex="1">
          <mxGeometry x="460" y="380" width="80" height="50" as="geometry" />
        </mxCell>
        <mxCell id="K35LnR0Q5-yhbviIUeu--25" value="" style="endArrow=classic;html=1;exitX=0.356;exitY=1.056;exitDx=0;exitDy=0;exitPerimeter=0;" parent="1" source="K35LnR0Q5-yhbviIUeu--6" edge="1">
          <mxGeometry width="50" height="50" relative="1" as="geometry">
            <mxPoint x="540" y="385" as="sourcePoint" />
            <mxPoint x="512" y="376" as="targetPoint" />
          </mxGeometry>
        </mxCell>
        <mxCell id="K35LnR0Q5-yhbviIUeu--26" value="" style="endArrow=classic;html=1;entryX=1;entryY=0.75;entryDx=0;entryDy=0;" parent="1" target="K35LnR0Q5-yhbviIUeu--2" edge="1">
          <mxGeometry width="50" height="50" relative="1" as="geometry">
            <mxPoint x="460" y="410" as="sourcePoint" />
            <mxPoint x="489.99999999999994" y="416.32" as="targetPoint" />
          </mxGeometry>
        </mxCell>
        <mxCell id="K35LnR0Q5-yhbviIUeu--27" value="" style="endArrow=classic;startArrow=classic;html=1;exitX=1;exitY=0.5;exitDx=0;exitDy=0;" parent="1" edge="1">
          <mxGeometry width="50" height="50" relative="1" as="geometry">
            <mxPoint x="570" y="319.5" as="sourcePoint" />
            <mxPoint x="610" y="320" as="targetPoint" />
            <Array as="points" />
          </mxGeometry>
        </mxCell>
      </root>
    </mxGraphModel>
  </diagram>
</mxfile>
